<svg xmlns="http://www.w3.org/2000/svg" viewBox="0 0 400 250" fill="none">
  <defs>
    <linearGradient id="bg" x1="0" y1="0" x2="400" y2="250" gradientUnits="userSpaceOnUse">
      <stop offset="0%" stop-color="#78350F"/>
      <stop offset="100%" stop-color="#92400E"/>
    </linearGradient>
  </defs>
  <rect width="400" height="250" fill="url(#bg)"/>
  <!-- Legal document with scales of justice -->
  <rect x="80" y="40" width="240" height="170" rx="8" fill="#FAFAF9" opacity="0.95"/>
  <!-- Document lines -->
  <rect x="100" y="60" width="200" height="8" rx="4" fill="#1A1A2E" opacity="0.8"/>
  <rect x="100" y="80" width="180" height="4" rx="2" fill="#6B7280"/>
  <rect x="100" y="90" width="160" height="4" rx="2" fill="#6B7280"/>
  <rect x="100" y="100" width="170" height="4" rx="2" fill="#6B7280"/>
  <rect x="100" y="115" width="140" height="4" rx="2" fill="#6B7280"/>
  <rect x="100" y="125" width="150" height="4" rx="2" fill="#6B7280"/>
  <!-- Scale icon -->
  <circle cx="300" cy="160" r="30" fill="#C9972B" opacity="0.15"/>
  <line x1="300" y1="145" x2="300" y2="175" stroke="#C9972B" stroke-width="2"/>
  <line x1="285" y1="150" x2="315" y2="150" stroke="#C9972B" stroke-width="2"/>
  <path d="M285 150 L280 165 L290 165 Z" fill="#C9972B"/>
  <path d="M315 150 L310 165 L320 165 Z" fill="#C9972B"/>
  <!-- Stamp -->
  <circle cx="200" cy="175" r="15" fill="none" stroke="#059669" stroke-width="1.5" opacity="0.5"/>
  <text x="190" y="179" font-family="sans-serif" font-size="8" fill="#059669" font-weight="bold">APPROVED</text>
</svg>
