<svg xmlns="http://www.w3.org/2000/svg" viewBox="0 0 900 700">
  <defs>
    <linearGradient id="goldGrad" x1="0%" y1="0%" x2="100%" y2="100%">
      <stop offset="0%" stop-color="#C9972B"/>
      <stop offset="100%" stop-color="#E8B84B"/>
    </linearGradient>
    <linearGradient id="goldGlow" x1="0%" y1="0%" x2="100%" y2="100%">
      <stop offset="0%" stop-color="#C9972B" stop-opacity="0.3"/>
      <stop offset="100%" stop-color="#E8B84B" stop-opacity="0.05"/>
    </linearGradient>
    <linearGradient id="greenGrad" x1="0%" y1="0%" x2="100%" y2="100%">
      <stop offset="0%" stop-color="#059669"/>
      <stop offset="100%" stop-color="#10B981"/>
    </linearGradient>
    <linearGradient id="cardGrad" x1="0%" y1="0%" x2="100%" y2="100%">
      <stop offset="0%" stop-color="#152238"/>
      <stop offset="100%" stop-color="#1E3448"/>
    </linearGradient>
    <linearGradient id="lineGrad" x1="0%" y1="0%" x2="100%" y2="0%">
      <stop offset="0%" stop-color="#C9972B" stop-opacity="0"/>
      <stop offset="50%" stop-color="#C9972B" stop-opacity="0.5"/>
      <stop offset="100%" stop-color="#E8B84B" stop-opacity="0"/>
    </linearGradient>
    <linearGradient id="lineGradV" x1="0%" y1="0%" x2="0%" y2="100%">
      <stop offset="0%" stop-color="#C9972B" stop-opacity="0"/>
      <stop offset="50%" stop-color="#C9972B" stop-opacity="0.4"/>
      <stop offset="100%" stop-color="#E8B84B" stop-opacity="0"/>
    </linearGradient>
    <linearGradient id="screenGrad" x1="0%" y1="0%" x2="0%" y2="100%">
      <stop offset="0%" stop-color="#1a2d47"/>
      <stop offset="100%" stop-color="#0f1d30"/>
    </linearGradient>
    <filter id="cardShadow">
      <feDropShadow dx="0" dy="8" stdDeviation="20" flood-color="#000" flood-opacity="0.3"/>
    </filter>
    <filter id="glow">
      <feGaussianBlur stdDeviation="12" result="blur"/>
      <feFlood flood-color="#C9972B" flood-opacity="0.15"/>
      <feComposite in2="blur" operator="in"/>
      <feMerge>
        <feMergeNode/>
        <feMergeNode in="SourceGraphic"/>
      </feMerge>
    </filter>
    <filter id="greenGlow">
      <feGaussianBlur stdDeviation="8" result="blur"/>
      <feFlood flood-color="#10B981" flood-opacity="0.12"/>
      <feComposite in2="blur" operator="in"/>
      <feMerge>
        <feMergeNode/>
        <feMergeNode in="SourceGraphic"/>
      </feMerge>
    </filter>
  </defs>

  <!-- Subtle dot grid -->
  <g opacity="0.03" fill="#C9972B">
    <circle cx="100" cy="50" r="1"/><circle cx="200" cy="50" r="1"/><circle cx="300" cy="50" r="1"/><circle cx="400" cy="50" r="1"/><circle cx="500" cy="50" r="1"/><circle cx="600" cy="50" r="1"/><circle cx="700" cy="50" r="1"/><circle cx="800" cy="50" r="1"/>
    <circle cx="100" cy="150" r="1"/><circle cx="200" cy="150" r="1"/><circle cx="300" cy="150" r="1"/><circle cx="400" cy="150" r="1"/><circle cx="500" cy="150" r="1"/><circle cx="600" cy="150" r="1"/><circle cx="700" cy="150" r="1"/><circle cx="800" cy="150" r="1"/>
    <circle cx="100" cy="250" r="1"/><circle cx="200" cy="250" r="1"/><circle cx="300" cy="250" r="1"/><circle cx="400" cy="250" r="1"/><circle cx="500" cy="250" r="1"/><circle cx="600" cy="250" r="1"/><circle cx="700" cy="250" r="1"/><circle cx="800" cy="250" r="1"/>
    <circle cx="100" cy="350" r="1"/><circle cx="200" cy="350" r="1"/><circle cx="300" cy="350" r="1"/><circle cx="400" cy="350" r="1"/><circle cx="500" cy="350" r="1"/><circle cx="600" cy="350" r="1"/><circle cx="700" cy="350" r="1"/><circle cx="800" cy="350" r="1"/>
    <circle cx="100" cy="450" r="1"/><circle cx="200" cy="450" r="1"/><circle cx="300" cy="450" r="1"/><circle cx="400" cy="450" r="1"/><circle cx="500" cy="450" r="1"/><circle cx="600" cy="450" r="1"/><circle cx="700" cy="450" r="1"/><circle cx="800" cy="450" r="1"/>
    <circle cx="100" cy="550" r="1"/><circle cx="200" cy="550" r="1"/><circle cx="300" cy="550" r="1"/><circle cx="400" cy="550" r="1"/><circle cx="500" cy="550" r="1"/><circle cx="600" cy="550" r="1"/><circle cx="700" cy="550" r="1"/><circle cx="800" cy="550" r="1"/>
    <circle cx="100" cy="650" r="1"/><circle cx="200" cy="650" r="1"/><circle cx="300" cy="650" r="1"/><circle cx="400" cy="650" r="1"/><circle cx="500" cy="650" r="1"/><circle cx="600" cy="650" r="1"/><circle cx="700" cy="650" r="1"/><circle cx="800" cy="650" r="1"/>
  </g>

  <!-- Background glow rings -->
  <circle cx="450" cy="350" r="280" stroke="#C9972B" stroke-width="0.5" opacity="0.06" fill="none"/>
  <circle cx="450" cy="350" r="200" stroke="#C9972B" stroke-width="0.5" opacity="0.1" fill="none" stroke-dasharray="3,10"/>
  <circle cx="450" cy="350" r="130" stroke="#C9972B" stroke-width="0.5" opacity="0.15" fill="none" stroke-dasharray="2,6"/>

  <!-- ============================================ -->
  <!-- CENTRAL DASHBOARD / MONITOR MOCKUP           -->
  <!-- ============================================ -->
  <g filter="url(#cardShadow)">
    <!-- Monitor body -->
    <rect x="280" y="140" width="340" height="230" rx="12" fill="url(#screenGrad)" stroke="#2a4060" stroke-width="1.5"/>
    
    <!-- Screen content area -->
    <rect x="290" y="155" width="320" height="185" rx="4" fill="#0c1a2e"/>
    
    <!-- Top bar of dashboard -->
    <rect x="290" y="155" width="320" height="28" rx="4" fill="#152238"/>
    <circle cx="310" cy="169" r="4" fill="#EF4444" opacity="0.6"/>
    <circle cx="325" cy="169" r="4" fill="#F59E0B" opacity="0.6"/>
    <circle cx="340" cy="169" r="4" fill="#10B981" opacity="0.6"/>
    
    <!-- Dashboard title -->
    <text x="450" y="173" font-family="system-ui, sans-serif" font-size="9" fill="#9CA3AF" text-anchor="middle" font-weight="500">JurisTech Dashboard — Business Registration</text>
    
    <!-- Status indicators row -->
    <g transform="translate(305, 198)">
      <rect width="95" height="50" rx="6" fill="#152238" stroke="#1E3448" stroke-width="0.5"/>
      <text x="10" y="22" font-family="system-ui, sans-serif" font-size="7" fill="#6B7280">Status</text>
      <text x="10" y="38" font-family="system-ui, sans-serif" font-size="11" fill="#10B981" font-weight="600">Approved ✓</text>
    </g>
    
    <g transform="translate(410, 198)">
      <rect width="95" height="50" rx="6" fill="#152238" stroke="#1E3448" stroke-width="0.5"/>
      <text x="10" y="22" font-family="system-ui, sans-serif" font-size="7" fill="#6B7280">Timeline</text>
      <text x="10" y="38" font-family="system-ui, sans-serif" font-size="11" fill="#E8B84B" font-weight="600">24-48 hrs</text>
    </g>
    
    <g transform="translate(515, 198)">
      <rect width="85" height="50" rx="6" fill="#152238" stroke="#1E3448" stroke-width="0.5"/>
      <text x="10" y="22" font-family="system-ui, sans-serif" font-size="7" fill="#6B7280">Type</text>
      <text x="10" y="38" font-family="system-ui, sans-serif" font-size="10" fill="#E8B84B" font-weight="600">Business</text>
    </g>
    
    <!-- Progress bar -->
    <g transform="translate(305, 260)">
      <rect width="295" height="6" rx="3" fill="#1E3448"/>
      <rect width="210" height="6" rx="3" fill="url(#greenGrad)"/>
      <text x="0" y="20" font-family="system-ui, sans-serif" font-size="7" fill="#6B7280">Registration progress: 71%</text>
    </g>
    
    <!-- Progress bar 2 -->
    <g transform="translate(305, 295)">
      <rect width="295" height="6" rx="3" fill="#1E3448"/>
      <rect width="165" height="6" rx="3" fill="url(#goldGrad)"/>
      <text x="0" y="20" font-family="system-ui, sans-serif" font-size="7" fill="#6B7280">Website setup: 56%</text>
    </g>
    
    <!-- Monitor stand -->
    <rect x="420" y="370" width="60" height="15" rx="2" fill="#1E3448" stroke="#2a4060" stroke-width="0.5"/>
    <rect x="390" y="385" width="120" height="6" rx="3" fill="#1E3448" stroke="#2a4060" stroke-width="0.5"/>
  </g>

  <!-- ============================================ -->
  <!-- FLOATING SERVICE CARDS (connected to dash)   -->
  <!-- ============================================ -->

  <!-- Card 1: CAC Registration (top) -->
  <g filter="url(#cardShadow)">
    <rect x="390" y="30" width="120" height="75" rx="10" fill="url(#cardGrad)" stroke="#C9972B" stroke-width="1" opacity="0.95"/>
    <circle cx="410" cy="52" r="12" fill="#C9972B" opacity="0.15"/>
    <!-- Document icon -->
    <rect x="405" y="46" width="10" height="12" rx="1" fill="none" stroke="#E8B84B" stroke-width="1"/>
    <line x1="408" y1="50" x2="412" y2="50" stroke="#E8B84B" stroke-width="0.7"/>
    <line x1="408" y1="53" x2="412" y2="53" stroke="#E8B84B" stroke-width="0.7"/>
    <text x="460" y="52" font-family="system-ui, sans-serif" font-size="8" fill="#E8B84B" font-weight="600">CAC</text>
    <text x="460" y="64" font-family="system-ui, sans-serif" font-size="7" fill="#6B7280">Registration</text>
    <text x="460" y="76" font-family="system-ui, sans-serif" font-size="7" fill="#10B981" font-weight="500">24-48h ✓</text>
    <!-- Connection line to dashboard -->
    <line x1="450" y1="105" x2="450" y2="140" stroke="url(#lineGradV)" stroke-width="1.5" stroke-dasharray="3,3" opacity="0.5"/>
    <!-- Glow dot -->
    <circle cx="450" cy="140" r="3" fill="#E8B84B" opacity="0.6"/>
  </g>

  <!-- Card 2: Websites (right-top) -->
  <g filter="url(#cardShadow)">
    <rect x="650" y="80" width="140" height="75" rx="10" fill="url(#cardGrad)" stroke="#10B981" stroke-width="1" opacity="0.95"/>
    <circle cx="672" cy="102" r="12" fill="#10B981" opacity="0.15"/>
    <!-- Browser icon -->
    <rect x="666" y="96" width="12" height="10" rx="2" fill="none" stroke="#10B981" stroke-width="1"/>
    <line x1="666" y1="100" x2="678" y2="100" stroke="#10B981" stroke-width="0.7"/>
    <circle cx="669" cy="98" r="0.8" fill="#10B981"/>
    <circle cx="671" cy="98" r="0.8" fill="#10B981"/>
    <text x="715" y="100" font-family="system-ui, sans-serif" font-size="8" fill="#10B981" font-weight="600">Website</text>
    <text x="715" y="112" font-family="system-ui, sans-serif" font-size="7" fill="#6B7280">Dev &amp; Hosting</text>
    <text x="715" y="124" font-family="system-ui, sans-serif" font-size="7" fill="#E8B84B" font-weight="500">Live ●</text>
    <!-- Connection line -->
    <line x1="620" y1="140" x2="650" y2="120" stroke="url(#lineGrad)" stroke-width="1.5" stroke-dasharray="3,3" opacity="0.5"/>
    <circle cx="620" cy="140" r="3" fill="#10B981" opacity="0.5"/>
  </g>

  <!-- Card 3: Legal Documents (right-bottom) -->
  <g filter="url(#cardShadow)">
    <rect x="680" y="340" width="150" height="75" rx="10" fill="url(#cardGrad)" stroke="#C9972B" stroke-width="1" opacity="0.95"/>
    <circle cx="702" cy="362" r="12" fill="#C9972B" opacity="0.15"/>
    <!-- Legal scale icon -->
    <line x1="697" y1="356" x2="707" y2="356" stroke="#E8B84B" stroke-width="1.2"/>
    <line x1="702" y1="356" x2="702" y2="364" stroke="#E8B84B" stroke-width="1.2"/>
    <path d="M695 364 L697 360 L707 360 L709 364" fill="none" stroke="#E8B84B" stroke-width="0.8"/>
    <text x="748" y="360" font-family="system-ui, sans-serif" font-size="8" fill="#E8B84B" font-weight="600">Legal</text>
    <text x="748" y="372" font-family="system-ui, sans-serif" font-size="7" fill="#6B7280">Documents</text>
    <text x="748" y="384" font-family="system-ui, sans-serif" font-size="7" fill="#10B981" font-weight="500">6 templates</text>
    <!-- Connection line -->
    <line x1="620" y1="310" x2="680" y2="355" stroke="url(#lineGrad)" stroke-width="1.5" stroke-dasharray="3,3" opacity="0.4"/>
    <circle cx="620" cy="310" r="3" fill="#E8B84B" opacity="0.4"/>
  </g>

  <!-- Card 4: Software (bottom) -->
  <g filter="url(#cardShadow)">
    <rect x="370" y="440" width="160" height="75" rx="10" fill="url(#cardGrad)" stroke="#10B981" stroke-width="1" opacity="0.95"/>
    <circle cx="392" cy="462" r="12" fill="#10B981" opacity="0.15"/>
    <!-- Code icon -->
    <path d="M387 458 L383 462 L387 466 M397 458 L401 462 L397 466 M394 456 L391 468" fill="none" stroke="#10B981" stroke-width="1.2" stroke-linecap="round"/>
    <text x="440" y="460" font-family="system-ui, sans-serif" font-size="8" fill="#10B981" font-weight="600">Software</text>
    <text x="440" y="472" font-family="system-ui, sans-serif" font-size="7" fill="#6B7280">Apps &amp; SaaS</text>
    <text x="440" y="484" font-family="system-ui, sans-serif" font-size="7" fill="#E8B84B" font-weight="500">3 products</text>
    <!-- Connection line -->
    <line x1="450" y1="410" x2="450" y2="440" stroke="url(#lineGradV)" stroke-width="1.5" stroke-dasharray="3,3" opacity="0.5"/>
    <circle cx="450" cy="410" r="3" fill="#10B981" opacity="0.5"/>
  </g>

  <!-- Card 5: Compliance (left-bottom) -->
  <g filter="url(#cardShadow)">
    <rect x="80" y="340" width="140" height="75" rx="10" fill="url(#cardGrad)" stroke="#C9972B" stroke-width="1" opacity="0.95"/>
    <circle cx="102" cy="362" r="12" fill="#C9972B" opacity="0.15"/>
    <!-- Shield icon -->
    <path d="M97 356 L102 353 L107 356 L107 362 L102 366 L97 362 Z" fill="none" stroke="#E8B84B" stroke-width="1"/>
    <path d="M100 360 L102 362 L105 358" fill="none" stroke="#E8B84B" stroke-width="0.8" stroke-linecap="round"/>
    <text x="145" y="360" font-family="system-ui, sans-serif" font-size="8" fill="#E8B84B" font-weight="600">Compliance</text>
    <text x="145" y="372" font-family="system-ui, sans-serif" font-size="7" fill="#6B7280">FIRS · SCUML</text>
    <text x="145" y="384" font-family="system-ui, sans-serif" font-size="7" fill="#10B981" font-weight="500">Active</text>
    <!-- Connection line -->
    <line x1="220" y1="310" x2="290" y2="340" stroke="url(#lineGrad)" stroke-width="1.5" stroke-dasharray="3,3" opacity="0.4"/>
    <circle cx="220" cy="310" r="3" fill="#E8B84B" opacity="0.4"/>
  </g>

  <!-- Card 6: Support (left-top) -->
  <g filter="url(#cardShadow)">
    <rect x="70" y="100" width="130" height="75" rx="10" fill="url(#cardGrad)" stroke="#10B981" stroke-width="1" opacity="0.95"/>
    <circle cx="92" cy="122" r="12" fill="#10B981" opacity="0.15"/>
    <!-- Chat icon -->
    <path d="M86 118 L86 124 L90 124 L92 127 L94 124 L98 124 L98 118 Z" fill="none" stroke="#10B981" stroke-width="1"/>
    <text x="135" y="120" font-family="system-ui, sans-serif" font-size="8" fill="#10B981" font-weight="600">Support</text>
    <text x="135" y="132" font-family="system-ui, sans-serif" font-size="7" fill="#6B7280">WhatsApp</text>
    <text x="135" y="144" font-family="system-ui, sans-serif" font-size="7" fill="#E8B84B" font-weight="500">24/7</text>
    <!-- Connection line -->
    <line x1="200" y1="155" x2="280" y2="200" stroke="url(#lineGrad)" stroke-width="1.5" stroke-dasharray="3,3" opacity="0.5"/>
    <circle cx="280" cy="200" r="3" fill="#10B981" opacity="0.5"/>
  </g>

  <!-- ============================================ -->
  <!-- METRIC BADGES (floating)                     -->
  <!-- ============================================ -->
  <g filter="url(#glow)">
    <rect x="50" y="40" width="110" height="48" rx="8" fill="#0A1628" stroke="url(#goldGrad)" stroke-width="1" opacity="0.9"/>
    <text x="105" y="60" font-family="system-ui, sans-serif" font-size="16" fill="#E8B84B" font-weight="700" text-anchor="middle">2,000+</text>
    <text x="105" y="74" font-family="system-ui, sans-serif" font-size="7" fill="#6B7280" text-anchor="middle" letter-spacing="0.5">BUSINESSES LAUNCHED</text>
  </g>

  <g filter="url(#greenGlow)">
    <rect x="740" y="520" width="110" height="48" rx="8" fill="#0A1628" stroke="url(#greenGrad)" stroke-width="1" opacity="0.9"/>
    <text x="795" y="540" font-family="system-ui, sans-serif" font-size="16" fill="#10B981" font-weight="700" text-anchor="middle">4.9 ★</text>
    <text x="795" y="554" font-family="system-ui, sans-serif" font-size="7" fill="#6B7280" text-anchor="middle" letter-spacing="0.5">CLIENT RATING</text>
  </g>

  <g filter="url(#glow)">
    <rect x="720" y="220" width="120" height="48" rx="8" fill="#0A1628" stroke="url(#goldGrad)" stroke-width="1" opacity="0.9"/>
    <text x="780" y="240" font-family="system-ui, sans-serif" font-size="16" fill="#E8B84B" font-weight="700" text-anchor="middle">5+ yrs</text>
    <text x="780" y="254" font-family="system-ui, sans-serif" font-size="7" fill="#6B7280" text-anchor="middle" letter-spacing="0.5">EXPERIENCE</text>
  </g>

  <!-- ============================================ -->
  <!-- DECORATIVE ELEMENTS                          -->
  <!-- ============================================ -->
  
  <!-- Floating dots -->
  <g opacity="0.3">
    <circle cx="320" cy="80" r="3" fill="#C9972B"/>
    <circle cx="580" cy="60" r="2" fill="#10B981"/>
    <circle cx="250" cy="280" r="2.5" fill="#C9972B"/>
    <circle cx="650" cy="280" r="2" fill="#C9972B"/>
    <circle cx="200" cy="450" r="3" fill="#10B981"/>
    <circle cx="700" cy="480" r="2" fill="#E8B84B"/>
    <circle cx="350" cy="560" r="2.5" fill="#C9972B"/>
    <circle cx="580" cy="550" r="2" fill="#10B981"/>
  </g>

  <!-- Hexagonal decorations -->
  <g opacity="0.06" stroke="#C9972B" stroke-width="1" fill="none">
    <polygon points="120,280 135,268 135,248 120,236 105,248 105,268"/>
    <polygon points="800,150 815,138 815,118 800,106 785,118 785,138"/>
    <polygon points="180,600 190,590 190,574 180,564 170,574 170,590"/>
    <polygon points="750,620 765,610 765,590 750,580 735,590 735,610"/>
  </g>

  <!-- Animated-looking pulse rings around center -->
  <circle cx="450" cy="260" r="50" stroke="#C9972B" stroke-width="0.5" opacity="0.15" fill="none"/>
  <circle cx="450" cy="260" r="70" stroke="#C9972B" stroke-width="0.3" opacity="0.08" fill="none" stroke-dasharray="2,6"/>
</svg>