<svg xmlns="http://www.w3.org/2000/svg" viewBox="0 0 400 250" fill="none">
  <defs>
    <linearGradient id="bg" x1="0" y1="0" x2="400" y2="250" gradientUnits="userSpaceOnUse">
      <stop offset="0%" stop-color="#1E3A8A"/>
      <stop offset="100%" stop-color="#1E40AF"/>
    </linearGradient>
  </defs>
  <rect width="400" height="250" fill="url(#bg)"/>
  <!-- Dashboard mockup -->
  <rect x="40" y="30" width="320" height="190" rx="12" fill="#1E3448" stroke="#2A4A6B" stroke-width="1"/>
  <!-- Sidebar -->
  <rect x="40" y="30" width="60" height="190" rx="12" fill="#152238"/>
  <rect x="40" y="100" width="60" height="120" fill="#152238"/>
  <rect x="50" y="45" width="40" height="25" rx="6" fill="#C9972B" opacity="0.3"/>
  <!-- Sidebar menu items -->
  <rect x="48" y="80" width="44" height="8" rx="4" fill="#2A4A6B"/>
  <rect x="48" y="95" width="44" height="8" rx="4" fill="#C9972B" opacity="0.4"/>
  <rect x="48" y="110" width="44" height="8" rx="4" fill="#2A4A6B"/>
  <rect x="48" y="125" width="44" height="8" rx="4" fill="#2A4A6B"/>
  <rect x="48" y="140" width="44" height="8" rx="4" fill="#2A4A6B"/>
  <!-- Main content area -->
  <rect x="110" y="30" width="250" height="40" fill="#0A1628"/>
  <rect x="125" y="45" width="100" height="10" rx="5" fill="#1E3448"/>
  <rect x="300" y="42" width="40" height="16" rx="8" fill="#10B981" opacity="0.2"/>
  <!-- Content cards -->
  <rect x="115" y="80" width="75" height="55" rx="6" fill="#152238" stroke="#2A4A6B" stroke-width="0.5"/>
  <text x="125" y="100" font-family="sans-serif" font-size="16" fill="#FFFFFF" font-weight="bold">156</text>
  <text x="125" y="118" font-family="sans-serif" font-size="8" fill="#6B7280">Active Cases</text>
  <rect x="200" y="80" width="75" height="55" rx="6" fill="#152238" stroke="#2A4A6B" stroke-width="0.5"/>
  <text x="210" y="100" font-family="sans-serif" font-size="16" fill="#C9972B" font-weight="bold">23</text>
  <text x="210" y="118" font-family="sans-serif" font-size="8" fill="#6B7280">New Clients</text>
  <rect x="285" y="80" width="75" height="55" rx="6" fill="#152238" stroke="#2A4A6B" stroke-width="0.5"/>
  <text x="295" y="100" font-family="sans-serif" font-size="16" fill="#10B981" font-weight="bold">98%</text>
  <text x="295" y="118" font-family="sans-serif" font-size="8" fill="#6B7280">Compliance</text>
  <!-- Table rows -->
  <rect x="115" y="145" width="240" height="20" rx="4" fill="#152238"/>
  <rect x="125" y="152" width="80" height="6" rx="3" fill="#2A4A6B"/>
  <rect x="220" y="152" width="50" height="6" rx="3" fill="#10B981" opacity="0.3"/>
  <rect x="290" y="152" width="50" height="6" rx="3" fill="#C9972B" opacity="0.3"/>
  <rect x="115" y="170" width="240" height="20" rx="4" fill="#0A1628"/>
  <rect x="125" y="177" width="60" height="6" rx="3" fill="#2A4A6B"/>
  <rect x="220" y="177" width="60" height="6" rx="3" fill="#10B981" opacity="0.3"/>
  <rect x="290" y="177" width="40" height="6" rx="3" fill="#C9972B" opacity="0.3"/>
  <rect x="115" y="195" width="240" height="20" rx="4" fill="#152238"/>
  <rect x="125" y="202" width="70" height="6" rx="3" fill="#2A4A6B"/>
  <rect x="220" y="202" width="45" height="6" rx="3" fill="#10B981" opacity="0.3"/>
  <rect x="290" y="202" width="55" height="6" rx="3" fill="#C9972B" opacity="0.3"/>
</svg>
